<svg width="1850" height="480" viewBox="0 0 1850 480" fill="none" xmlns="http://www.w3.org/2000/svg">
<path d="M642.46 279.865L559.883 432H361.624V413.402H379.85V162.695H361.624V144.096H559.883L642.46 279.865ZM390.637 413.402H555.048V162.695H462.427L390.637 413.402ZM889.235 338.264L820.793 432H737.472L668.658 338.264L739.704 251.223H818.561L889.235 338.264ZM741.192 413.402H816.701V269.822H741.192V413.402ZM1097.75 413.402V432H1031.91V413.402H1055.72L1006.62 269.822H992.114L943.014 413.402H973.887V432H907.677V413.402H929.995V269.822H911.397V251.223H1068.74V413.402H1097.75ZM1320.11 338.264L1265.43 413.402L1304.49 461.757H1247.57V432H1181.36L1112.55 338.264L1183.22 251.223H1249.43L1320.11 338.264ZM1185.08 413.402H1247.57V269.822H1185.08V413.402ZM1535.37 269.45H1514.54V413.402H1532.76V432H1368.35V269.45H1349.75V250.851L1433.82 251.223L1380.63 413.402H1502.63L1450.93 251.223L1535.37 250.851V269.45ZM1591.94 164.926H1649.6V215.514H1591.94V164.926ZM1565.16 413.402H1593.06V269.822H1569.62V251.223H1661.5L1606.08 413.402H1631V432H1565.16V413.402ZM1783.36 336.776V269.45H1768.85V250.851L1834.31 251.223L1783.36 336.776ZM1756.95 251.223V336.032L1831.71 432H1756.95V336.776L1679.95 251.223H1756.95ZM1730.91 346.075V413.402H1743.93V432H1679.95L1730.91 346.075Z" fill="#EFC7B0"/>
<circle cx="153.015" cy="285.985" r="145.985" fill="#D80202"/>
<mask id="mask0_778_796" style="mask-type:alpha" maskUnits="userSpaceOnUse" x="7" y="140" width="292" height="292">
<circle cx="153.005" cy="285.985" r="145.985" fill="#78CBED"/>
</mask>
<g mask="url(#mask0_778_796)">
<path d="M152.994 339.327C44.9088 354.767 8.41246 267.738 1.39394 253.701L-0.00976562 277.564C8.41246 295.812 36.4865 394.071 152.994 382.841C233.005 375.13 249.849 419.338 254.061 431.971L256.868 427.76C248.446 371.612 218.968 333.712 152.994 339.327Z" fill="#EFC7B0"/>
</g>
<mask id="mask1_778_796" style="mask-type:alpha" maskUnits="userSpaceOnUse" x="0" y="253" width="257" height="179">
<path d="M153.004 339.327C44.9185 354.768 8.42222 267.738 1.4037 253.701L0 277.564C8.42222 295.812 36.4963 394.072 153.004 382.842C233.015 375.13 249.859 419.338 254.07 431.972L256.878 427.76C248.456 371.612 218.978 333.712 153.004 339.327Z" fill="black"/>
</mask>
<g mask="url(#mask1_778_796)">
<path d="M153.01 337.924V382.842M192.314 340.731L189.506 382.842M226.002 356.172L217.58 391.264M112.302 339.327L109.495 381.439M77.2098 330.905L68.7876 370.209M44.9246 312.657L30.8876 337.924M23.8691 290.198L9.83203 305.638" stroke="#D80202" stroke-width="1.73831"/>
</g>
<path d="M138.767 256.239C138.926 251.329 137.868 246.428 135.653 241.815C133.437 237.203 130.108 232.969 125.855 229.355C121.602 225.742 116.508 222.82 110.865 220.756C105.222 218.691 99.1403 217.526 92.9663 217.326C86.7923 217.125 80.6474 217.894 74.8823 219.588C69.1173 221.281 63.8451 223.867 59.3668 227.197C54.8884 230.527 51.2916 234.536 48.7817 238.996C46.2718 243.455 44.8979 248.278 44.7386 253.187L59.3206 253.661C59.4306 250.274 60.3783 246.947 62.1097 243.871C63.8412 240.795 66.3224 238.029 69.4117 235.732C72.5011 233.434 76.138 231.651 80.1149 230.482C84.0918 229.314 88.3308 228.784 92.5899 228.922C96.8489 229.06 101.045 229.864 104.937 231.288C108.83 232.712 112.344 234.728 115.278 237.22C118.212 239.713 120.508 242.634 122.037 245.816C123.565 248.998 124.295 252.379 124.185 255.766L138.767 256.239Z" fill="#EFC7B0"/>
<path d="M191.301 199.007C187.377 201.964 184.225 205.863 182.023 210.482C179.821 215.101 178.613 220.35 178.467 225.929C178.322 231.508 179.242 237.307 181.175 242.997C183.109 248.686 186.017 254.153 189.735 259.086C193.452 264.02 197.906 268.323 202.842 271.749C207.778 275.176 213.099 277.659 218.502 279.057C223.905 280.454 229.284 280.74 234.331 279.896C239.378 279.053 243.995 277.097 247.918 274.141L219.609 236.574L191.301 199.007Z" fill="#EFC7B0"/>
<path d="M946.48 215H948.48V235H946.48V231.2C945.04 234.027 942.653 235.44 939.32 235.44C936.947 235.44 935.053 234.72 933.64 233.28C932.253 231.813 931.56 229.867 931.56 227.44V215H933.6V227.44C933.6 229.307 934.107 230.787 935.12 231.88C936.16 232.973 937.613 233.52 939.48 233.52C941.533 233.52 943.213 232.84 944.52 231.48C945.827 230.12 946.48 228.147 946.48 225.56V215ZM963.818 214.56C966.191 214.56 968.071 215.293 969.458 216.76C970.871 218.2 971.578 220.133 971.578 222.56V235H969.538V222.56C969.538 220.693 969.018 219.213 967.978 218.12C966.965 217.027 965.525 216.48 963.658 216.48C961.605 216.48 959.925 217.16 958.618 218.52C957.311 219.88 956.658 221.853 956.658 224.44V235H954.658V215H956.658V218.8C958.098 215.973 960.485 214.56 963.818 214.56ZM986.396 235.44C983.383 235.44 980.876 234.44 978.876 232.44C976.876 230.44 975.876 227.96 975.876 225C975.876 222.04 976.876 219.56 978.876 217.56C980.876 215.56 983.383 214.56 986.396 214.56C988.343 214.56 990.103 215.027 991.676 215.96C993.25 216.867 994.396 218.107 995.116 219.68L993.476 220.64C992.89 219.36 991.956 218.347 990.676 217.6C989.423 216.853 987.996 216.48 986.396 216.48C983.996 216.48 981.983 217.307 980.356 218.96C978.73 220.587 977.916 222.6 977.916 225C977.916 227.4 978.73 229.427 980.356 231.08C981.983 232.707 983.996 233.52 986.396 233.52C987.996 233.52 989.423 233.147 990.676 232.4C991.956 231.653 992.93 230.64 993.596 229.36L995.276 230.36C994.476 231.907 993.276 233.147 991.676 234.08C990.103 234.987 988.343 235.44 986.396 235.44ZM1008.62 235.44C1005.69 235.44 1003.2 234.44 1001.14 232.44C999.116 230.413 998.103 227.933 998.103 225C998.103 222.067 999.116 219.6 1001.14 217.6C1003.2 215.573 1005.69 214.56 1008.62 214.56C1011.53 214.56 1014 215.573 1016.02 217.6C1018.08 219.6 1019.1 222.067 1019.1 225C1019.1 227.933 1018.08 230.413 1016.02 232.44C1014 234.44 1011.53 235.44 1008.62 235.44ZM1002.58 231.04C1004.24 232.693 1006.25 233.52 1008.62 233.52C1011 233.52 1013 232.693 1014.62 231.04C1016.25 229.387 1017.06 227.373 1017.06 225C1017.06 222.627 1016.25 220.613 1014.62 218.96C1013 217.307 1011 216.48 1008.62 216.48C1006.25 216.48 1004.24 217.307 1002.58 218.96C1000.96 220.613 1000.14 222.627 1000.14 225C1000.14 227.373 1000.96 229.387 1002.58 231.04ZM1045.28 214.56C1047.46 214.56 1049.22 215.24 1050.56 216.6C1051.89 217.96 1052.56 219.867 1052.56 222.32V235H1050.56V222.32C1050.56 220.453 1050.06 219.013 1049.08 218C1048.12 216.987 1046.84 216.48 1045.24 216.48C1043.45 216.48 1042 217.093 1040.88 218.32C1039.78 219.547 1039.24 221.387 1039.24 223.84V235H1037.24V222.32C1037.24 220.453 1036.77 219.013 1035.84 218C1034.93 216.987 1033.69 216.48 1032.12 216.48C1030.36 216.48 1028.88 217.107 1027.68 218.36C1026.5 219.587 1025.92 221.413 1025.92 223.84V235H1023.92V215H1025.92V218.44C1027.3 215.853 1029.45 214.56 1032.36 214.56C1033.82 214.56 1035.1 214.92 1036.2 215.64C1037.29 216.333 1038.09 217.333 1038.6 218.64C1039.29 217.28 1040.22 216.267 1041.4 215.6C1042.6 214.907 1043.89 214.56 1045.28 214.56ZM1079.57 214.56C1081.76 214.56 1083.52 215.24 1084.85 216.6C1086.19 217.96 1086.85 219.867 1086.85 222.32V235H1084.85V222.32C1084.85 220.453 1084.36 219.013 1083.37 218C1082.41 216.987 1081.13 216.48 1079.53 216.48C1077.75 216.48 1076.29 217.093 1075.17 218.32C1074.08 219.547 1073.53 221.387 1073.53 223.84V235H1071.53V222.32C1071.53 220.453 1071.07 219.013 1070.13 218C1069.23 216.987 1067.99 216.48 1066.41 216.48C1064.65 216.48 1063.17 217.107 1061.97 218.36C1060.8 219.587 1060.21 221.413 1060.21 223.84V235H1058.21V215H1060.21V218.44C1061.6 215.853 1063.75 214.56 1066.65 214.56C1068.12 214.56 1069.4 214.92 1070.49 215.64C1071.59 216.333 1072.39 217.333 1072.89 218.64C1073.59 217.28 1074.52 216.267 1075.69 215.6C1076.89 214.907 1078.19 214.56 1079.57 214.56ZM1101.67 235.44C1098.74 235.44 1096.24 234.44 1094.19 232.44C1092.16 230.413 1091.15 227.933 1091.15 225C1091.15 222.067 1092.16 219.6 1094.19 217.6C1096.24 215.573 1098.74 214.56 1101.67 214.56C1104.58 214.56 1107.04 215.573 1109.07 217.6C1111.12 219.6 1112.15 222.067 1112.15 225C1112.15 227.933 1111.12 230.413 1109.07 232.44C1107.04 234.44 1104.58 235.44 1101.67 235.44ZM1095.63 231.04C1097.28 232.693 1099.3 233.52 1101.67 233.52C1104.04 233.52 1106.04 232.693 1107.67 231.04C1109.3 229.387 1110.11 227.373 1110.11 225C1110.11 222.627 1109.3 220.613 1107.67 218.96C1106.04 217.307 1104.04 216.48 1101.67 216.48C1099.3 216.48 1097.28 217.307 1095.63 218.96C1094 220.613 1093.19 222.627 1093.19 225C1093.19 227.373 1094 229.387 1095.63 231.04ZM1126.12 214.56C1128.5 214.56 1130.38 215.293 1131.76 216.76C1133.18 218.2 1133.88 220.133 1133.88 222.56V235H1131.84V222.56C1131.84 220.693 1131.32 219.213 1130.28 218.12C1129.27 217.027 1127.83 216.48 1125.96 216.48C1123.91 216.48 1122.23 217.16 1120.92 218.52C1119.62 219.88 1118.96 221.853 1118.96 224.44V235H1116.96V215H1118.96V218.8C1120.4 215.973 1122.79 214.56 1126.12 214.56ZM1167.81 215H1169.85V235H1167.81V230.48C1166.95 232.027 1165.78 233.24 1164.29 234.12C1162.79 235 1161.1 235.44 1159.21 235.44C1156.35 235.44 1153.91 234.44 1151.89 232.44C1149.86 230.413 1148.85 227.933 1148.85 225C1148.85 222.067 1149.86 219.6 1151.89 217.6C1153.91 215.573 1156.35 214.56 1159.21 214.56C1161.1 214.56 1162.79 215 1164.29 215.88C1165.78 216.76 1166.95 217.973 1167.81 219.52V215ZM1153.33 231.04C1154.98 232.693 1156.99 233.52 1159.37 233.52C1161.74 233.52 1163.74 232.693 1165.37 231.04C1166.99 229.387 1167.81 227.373 1167.81 225C1167.81 222.627 1166.99 220.613 1165.37 218.96C1163.74 217.307 1161.74 216.48 1159.37 216.48C1156.99 216.48 1154.98 217.307 1153.33 218.96C1151.7 220.613 1150.89 222.627 1150.89 225C1150.89 227.373 1151.7 229.387 1153.33 231.04ZM1197.35 214.56C1199.53 214.56 1201.29 215.24 1202.63 216.6C1203.96 217.96 1204.63 219.867 1204.63 222.32V235H1202.63V222.32C1202.63 220.453 1202.13 219.013 1201.15 218C1200.19 216.987 1198.91 216.48 1197.31 216.48C1195.52 216.48 1194.07 217.093 1192.95 218.32C1191.85 219.547 1191.31 221.387 1191.31 223.84V235H1189.31V222.32C1189.31 220.453 1188.84 219.013 1187.91 218C1187 216.987 1185.76 216.48 1184.19 216.48C1182.43 216.48 1180.95 217.107 1179.75 218.36C1178.57 219.587 1177.99 221.413 1177.99 223.84V235H1175.99V215H1177.99V218.44C1179.37 215.853 1181.52 214.56 1184.43 214.56C1185.89 214.56 1187.17 214.92 1188.27 215.64C1189.36 216.333 1190.16 217.333 1190.67 218.64C1191.36 217.28 1192.29 216.267 1193.47 215.6C1194.67 214.907 1195.96 214.56 1197.35 214.56ZM1219.44 235.44C1216.51 235.44 1214.02 234.44 1211.96 232.44C1209.94 230.413 1208.92 227.933 1208.92 225C1208.92 222.067 1209.94 219.6 1211.96 217.6C1214.02 215.573 1216.51 214.56 1219.44 214.56C1222.35 214.56 1224.82 215.573 1226.84 217.6C1228.9 219.6 1229.92 222.067 1229.92 225C1229.92 227.933 1228.9 230.413 1226.84 232.44C1224.82 234.44 1222.35 235.44 1219.44 235.44ZM1213.4 231.04C1215.06 232.693 1217.07 233.52 1219.44 233.52C1221.82 233.52 1223.82 232.693 1225.44 231.04C1227.07 229.387 1227.88 227.373 1227.88 225C1227.88 222.627 1227.07 220.613 1225.44 218.96C1223.82 217.307 1221.82 216.48 1219.44 216.48C1217.07 216.48 1215.06 217.307 1213.4 218.96C1211.78 220.613 1210.96 222.627 1210.96 225C1210.96 227.373 1211.78 229.387 1213.4 231.04ZM1243.9 214.56C1246.27 214.56 1248.15 215.293 1249.54 216.76C1250.95 218.2 1251.66 220.133 1251.66 222.56V235H1249.62V222.56C1249.62 220.693 1249.1 219.213 1248.06 218.12C1247.04 217.027 1245.6 216.48 1243.74 216.48C1241.68 216.48 1240 217.16 1238.7 218.52C1237.39 219.88 1236.74 221.853 1236.74 224.44V235H1234.74V215H1236.74V218.8C1238.18 215.973 1240.56 214.56 1243.9 214.56ZM1275.07 215H1277.07V234.04C1277.07 236.947 1276.13 239.24 1274.23 240.92C1272.34 242.6 1269.97 243.44 1267.11 243.44C1264.82 243.44 1262.86 243.013 1261.23 242.16C1259.61 241.307 1258.42 240.133 1257.67 238.64L1259.43 237.64C1260.71 240.227 1263.27 241.52 1267.11 241.52C1269.59 241.52 1271.54 240.84 1272.95 239.48C1274.37 238.147 1275.07 236.333 1275.07 234.04V230.36C1274.25 231.933 1273.07 233.173 1271.55 234.08C1270.06 234.987 1268.37 235.44 1266.47 235.44C1263.59 235.44 1261.14 234.44 1259.11 232.44C1257.11 230.413 1256.11 227.933 1256.11 225C1256.11 222.067 1257.11 219.6 1259.11 217.6C1261.14 215.573 1263.59 214.56 1266.47 214.56C1268.37 214.56 1270.06 215.013 1271.55 215.92C1273.07 216.827 1274.25 218.067 1275.07 219.64V215ZM1260.55 231.04C1262.21 232.693 1264.22 233.52 1266.59 233.52C1268.97 233.52 1270.97 232.693 1272.59 231.04C1274.25 229.387 1275.07 227.373 1275.07 225C1275.07 222.627 1274.25 220.613 1272.59 218.96C1270.97 217.307 1268.97 216.48 1266.59 216.48C1264.22 216.48 1262.21 217.307 1260.55 218.96C1258.93 220.613 1258.11 222.627 1258.11 225C1258.11 227.373 1258.93 229.387 1260.55 231.04ZM1308.32 215H1310.32V235H1308.32V231.2C1306.88 234.027 1304.49 235.44 1301.16 235.44C1298.78 235.44 1296.89 234.72 1295.48 233.28C1294.09 231.813 1293.4 229.867 1293.4 227.44V215H1295.44V227.44C1295.44 229.307 1295.94 230.787 1296.96 231.88C1298 232.973 1299.45 233.52 1301.32 233.52C1303.37 233.52 1305.05 232.84 1306.36 231.48C1307.66 230.12 1308.32 228.147 1308.32 225.56V215ZM1325.65 214.56C1328.03 214.56 1329.91 215.293 1331.29 216.76C1332.71 218.2 1333.41 220.133 1333.41 222.56V235H1331.37V222.56C1331.37 220.693 1330.85 219.213 1329.81 218.12C1328.8 217.027 1327.36 216.48 1325.49 216.48C1323.44 216.48 1321.76 217.16 1320.45 218.52C1319.15 219.88 1318.49 221.853 1318.49 224.44V235H1316.49V215H1318.49V218.8C1319.93 215.973 1322.32 214.56 1325.65 214.56ZM1348.23 235.44C1345.22 235.44 1342.71 234.44 1340.71 232.44C1338.71 230.44 1337.71 227.96 1337.71 225C1337.71 222.04 1338.71 219.56 1340.71 217.56C1342.71 215.56 1345.22 214.56 1348.23 214.56C1350.18 214.56 1351.94 215.027 1353.51 215.96C1355.09 216.867 1356.23 218.107 1356.95 219.68L1355.31 220.64C1354.73 219.36 1353.79 218.347 1352.51 217.6C1351.26 216.853 1349.83 216.48 1348.23 216.48C1345.83 216.48 1343.82 217.307 1342.19 218.96C1340.57 220.587 1339.75 222.6 1339.75 225C1339.75 227.4 1340.57 229.427 1342.19 231.08C1343.82 232.707 1345.83 233.52 1348.23 233.52C1349.83 233.52 1351.26 233.147 1352.51 232.4C1353.79 231.653 1354.77 230.64 1355.43 229.36L1357.11 230.36C1356.31 231.907 1355.11 233.147 1353.51 234.08C1351.94 234.987 1350.18 235.44 1348.23 235.44ZM1370.46 235.44C1367.53 235.44 1365.03 234.44 1362.98 232.44C1360.95 230.413 1359.94 227.933 1359.94 225C1359.94 222.067 1360.95 219.6 1362.98 217.6C1365.03 215.573 1367.53 214.56 1370.46 214.56C1373.37 214.56 1375.83 215.573 1377.86 217.6C1379.91 219.6 1380.94 222.067 1380.94 225C1380.94 227.933 1379.91 230.413 1377.86 232.44C1375.83 234.44 1373.37 235.44 1370.46 235.44ZM1364.42 231.04C1366.07 232.693 1368.09 233.52 1370.46 233.52C1372.83 233.52 1374.83 232.693 1376.46 231.04C1378.09 229.387 1378.9 227.373 1378.9 225C1378.9 222.627 1378.09 220.613 1376.46 218.96C1374.83 217.307 1372.83 216.48 1370.46 216.48C1368.09 216.48 1366.07 217.307 1364.42 218.96C1362.79 220.613 1361.98 222.627 1361.98 225C1361.98 227.373 1362.79 229.387 1364.42 231.04ZM1407.11 214.56C1409.3 214.56 1411.06 215.24 1412.39 216.6C1413.73 217.96 1414.39 219.867 1414.39 222.32V235H1412.39V222.32C1412.39 220.453 1411.9 219.013 1410.91 218C1409.95 216.987 1408.67 216.48 1407.07 216.48C1405.29 216.48 1403.83 217.093 1402.71 218.32C1401.62 219.547 1401.07 221.387 1401.07 223.84V235H1399.07V222.32C1399.07 220.453 1398.61 219.013 1397.67 218C1396.77 216.987 1395.53 216.48 1393.95 216.48C1392.19 216.48 1390.71 217.107 1389.51 218.36C1388.34 219.587 1387.75 221.413 1387.75 223.84V235H1385.75V215H1387.75V218.44C1389.14 215.853 1391.29 214.56 1394.19 214.56C1395.66 214.56 1396.94 214.92 1398.03 215.64C1399.13 216.333 1399.93 217.333 1400.43 218.64C1401.13 217.28 1402.06 216.267 1403.23 215.6C1404.43 214.907 1405.73 214.56 1407.11 214.56ZM1441.41 214.56C1443.6 214.56 1445.36 215.24 1446.69 216.6C1448.02 217.96 1448.69 219.867 1448.69 222.32V235H1446.69V222.32C1446.69 220.453 1446.2 219.013 1445.21 218C1444.25 216.987 1442.97 216.48 1441.37 216.48C1439.58 216.48 1438.13 217.093 1437.01 218.32C1435.92 219.547 1435.37 221.387 1435.37 223.84V235H1433.37V222.32C1433.37 220.453 1432.9 219.013 1431.97 218C1431.06 216.987 1429.82 216.48 1428.25 216.48C1426.49 216.48 1425.01 217.107 1423.81 218.36C1422.64 219.587 1422.05 221.413 1422.05 223.84V235H1420.05V215H1422.05V218.44C1423.44 215.853 1425.58 214.56 1428.49 214.56C1429.96 214.56 1431.24 214.92 1432.33 215.64C1433.42 216.333 1434.22 217.333 1434.73 218.64C1435.42 217.28 1436.36 216.267 1437.53 215.6C1438.73 214.907 1440.02 214.56 1441.41 214.56ZM1463.51 235.44C1460.57 235.44 1458.08 234.44 1456.03 232.44C1454 230.413 1452.99 227.933 1452.99 225C1452.99 222.067 1454 219.6 1456.03 217.6C1458.08 215.573 1460.57 214.56 1463.51 214.56C1466.41 214.56 1468.88 215.573 1470.91 217.6C1472.96 219.6 1473.99 222.067 1473.99 225C1473.99 227.933 1472.96 230.413 1470.91 232.44C1468.88 234.44 1466.41 235.44 1463.51 235.44ZM1457.47 231.04C1459.12 232.693 1461.13 233.52 1463.51 233.52C1465.88 233.52 1467.88 232.693 1469.51 231.04C1471.13 229.387 1471.95 227.373 1471.95 225C1471.95 222.627 1471.13 220.613 1469.51 218.96C1467.88 217.307 1465.88 216.48 1463.51 216.48C1461.13 216.48 1459.12 217.307 1457.47 218.96C1455.84 220.613 1455.03 222.627 1455.03 225C1455.03 227.373 1455.84 229.387 1457.47 231.04ZM1487.96 214.56C1490.33 214.56 1492.21 215.293 1493.6 216.76C1495.01 218.2 1495.72 220.133 1495.72 222.56V235H1493.68V222.56C1493.68 220.693 1493.16 219.213 1492.12 218.12C1491.11 217.027 1489.67 216.48 1487.8 216.48C1485.75 216.48 1484.07 217.16 1482.76 218.52C1481.45 219.88 1480.8 221.853 1480.8 224.44V235H1478.8V215H1480.8V218.8C1482.24 215.973 1484.63 214.56 1487.96 214.56Z" fill="#EFC7B0"/>
</svg>
