<svg width="27" height="27" viewBox="0 0 27 27" fill="none" xmlns="http://www.w3.org/2000/svg">
<circle cx="13.3289" cy="13.3211" r="12.7165" fill="#D80202"/>
<mask id="mask0_445_1015" style="mask-type:alpha" maskUnits="userSpaceOnUse" x="0" y="0" width="27" height="27">
<circle cx="13.3279" cy="13.3212" r="12.7165" fill="#78CBED"/>
</mask>
<g mask="url(#mask0_445_1015)">
<path d="M13.3269 17.9675C3.91181 19.3126 0.73267 11.7315 0.121298 10.5088L-0.000976562 12.5875C0.73267 14.177 3.17816 22.7362 13.3269 21.758C20.2966 21.0863 21.7639 24.9372 22.1307 26.0376L22.3753 25.6708C21.6416 20.7798 19.0738 17.4784 13.3269 17.9675Z" fill="#EFC7B0"/>
</g>
<mask id="mask1_445_1015" style="mask-type:alpha" maskUnits="userSpaceOnUse" x="0" y="10" width="23" height="17">
<path d="M13.3279 17.9675C3.91278 19.3126 0.733647 11.7315 0.122274 10.5088L0 12.5875C0.733647 14.177 3.17914 22.7362 13.3279 21.758C20.2976 21.0863 21.7649 24.9372 22.1317 26.0376L22.3762 25.6708C21.6426 20.7798 19.0748 17.4784 13.3279 17.9675Z" fill="black"/>
</mask>
<g mask="url(#mask1_445_1015)">
<path d="M13.3284 17.8452V21.758M16.7521 18.0897L16.5076 21.758M19.6867 19.4348L18.9531 22.4916M9.78248 17.9675L9.53794 21.6357M6.72562 17.2338L5.99197 20.6575M3.91331 15.6443L2.69056 17.8452M2.07919 13.6879L0.856445 15.0329" stroke="#D80202" stroke-width="0.151421"/>
</g>
<path d="M12.0877 10.73C12.1015 10.3023 12.0094 9.87537 11.8164 9.47356C11.6234 9.07174 11.3334 8.70293 10.9629 8.38816C10.5924 8.0734 10.1488 7.81885 9.6572 7.63906C9.16564 7.45926 8.63583 7.35774 8.09802 7.34028C7.56022 7.32283 7.02494 7.38978 6.52276 7.53732C6.02058 7.68486 5.56133 7.9101 5.17122 8.20018C4.78112 8.49026 4.46781 8.83949 4.24917 9.22794C4.03054 9.6164 3.91087 10.0365 3.89698 10.4641L5.1672 10.5054C5.17678 10.2103 5.25934 9.92056 5.41016 9.6526C5.56098 9.38463 5.77712 9.14371 6.04622 8.94361C6.31533 8.7435 6.63214 8.58812 6.97856 8.48634C7.32499 8.38456 7.69424 8.33837 8.06524 8.35042C8.43624 8.36246 8.80172 8.43249 9.14081 8.55652C9.47991 8.68055 9.78597 8.85615 10.0415 9.07328C10.2971 9.29042 10.4972 9.54484 10.6303 9.82203C10.7634 10.0992 10.827 10.3937 10.8174 10.6888L12.0877 10.73Z" fill="#EFC7B0"/>
<path d="M16.6639 5.74473C16.3221 6.00225 16.0475 6.3419 15.8557 6.74428C15.6639 7.14665 15.5587 7.60387 15.546 8.08984C15.5333 8.57581 15.6135 9.081 15.7819 9.57658C15.9503 10.0722 16.2036 10.5484 16.5275 10.9781C16.8513 11.4079 17.2393 11.7827 17.6692 12.0812C18.0992 12.3796 18.5627 12.5959 19.0334 12.7177C19.504 12.8395 19.9725 12.8643 20.4122 12.7909C20.8518 12.7174 21.254 12.547 21.5958 12.2895L19.1298 9.01713L16.6639 5.74473Z" fill="#EFC7B0"/>
</svg>