<svg width="170" height="170" viewBox="0 0 170 170" fill="none" xmlns="http://www.w3.org/2000/svg">
<circle cx="85.2061" cy="84.7589" r="76.7589" fill="black"/>
<path d="M161.579 98.5272C157.224 88.3416 143.489 74.0851 132.689 86.5051C122.381 98.3587 138.072 113.549 146.396 105.203C153.714 96.6684 144.174 89.1633 140.403 92.6286" stroke="#EFC7B0"/>
<path d="M130.771 146.585C133.648 135.888 131.671 116.19 115.503 119.271C100.072 122.212 103.009 143.852 114.711 142.442C125.74 140.261 122.884 128.463 117.778 128.854" stroke="#EFC7B0"/>
<path d="M74.9191 161.77C84.2211 155.756 95.9477 139.806 81.8793 131.263C68.4523 123.11 56.1366 141.145 65.7707 147.936C75.4204 153.705 81.2028 143.032 77.1495 139.902" stroke="#EFC7B0"/>
<path d="M20.1345 127.095C30.4704 131.079 50.2669 131.18 48.9001 114.778C47.5956 99.1237 25.7662 99.7727 25.9409 111.559C26.9518 122.756 38.9845 121.154 39.1312 116.035" stroke="#EFC7B0"/>
<path d="M7.39379 71.7085C14.1858 80.4591 31.0844 90.7716 38.3866 76.0211C45.3558 61.9432 26.329 51.223 20.3905 61.405C15.4724 71.5147 26.6028 76.3586 29.3727 72.0513" stroke="#EFC7B0"/>
<path d="M45.5663 18.2755C40.9742 28.3561 39.6956 48.1115 56.15 47.7227C71.8542 47.3517 72.5048 25.5224 60.7293 24.9957C49.492 25.3388 50.3753 37.4454 55.4764 37.8964" stroke="#EFC7B0"/>
<path d="M107.355 10.006C96.4813 12.1175 79.652 22.5429 89.5191 35.7163C98.9363 48.2891 117.09 36.1487 110.684 26.254C103.882 17.3024 94.5363 25.0487 97.1299 29.4644" stroke="#EFC7B0"/>
<path d="M147.892 40.1435C137.13 37.5165 117.484 39.953 120.942 56.0447C124.242 71.4028 145.808 67.9617 144.124 56.2953C141.687 45.3202 129.958 48.4508 130.469 53.5463" stroke="#EFC7B0"/>
<circle cx="85.2061" cy="84.7589" r="80.7589" stroke="#FF0000" stroke-width="8"/>
</svg>