<svg width="18" height="19" viewBox="0 0 18 19" fill="none" xmlns="http://www.w3.org/2000/svg">
<path d="M9 5C9 6.16667 11.1 9.5 13.5 9.5C12.5 9.5 9 11.6 9 14C9 13.0312 7.02911 9.71615 4.7239 9.51006C4.63728 9.51575 4.56192 9.51238 4.5 9.5C4.57494 9.5 4.6496 9.50341 4.7239 9.51006C5.80298 9.43912 8.62972 7.96221 9 5Z" fill="#D80202"/>
<path d="M9 1V5M9 5C9 6.16667 11.1 9.5 13.5 9.5M9 5C8.6 8.2 5.33333 9.66667 4.5 9.5M13.5 9.5C15.9 9.5 16.3333 9.5 17 9.5H13.5ZM13.5 9.5C12.5 9.5 9 11.6 9 14M9 14C9 16.4 9 17.1667 9 18V14ZM9 14C9 13 6.9 9.5 4.5 9.5M4.5 9.5C2.1 9.5 1.66667 9.5 1 9.5H4.5Z" stroke="#EFC7B0" stroke-linecap="round" stroke-linejoin="round"/>
</svg>
